<?xml version="1.0" encoding="UTF-8" standalone="no"?>
<!-- Created with Inkscape (http://www.inkscape.org/) -->

<svg
   width="200mm"
   height="200mm"
   viewBox="0 0 200 200"
   version="1.1"
   id="svg5"
   inkscape:version="1.1.2 (0a00cf5339, 2022-02-04)"
   sodipodi:docname="random_dice.svg"
   xmlns:inkscape="http://www.inkscape.org/namespaces/inkscape"
   xmlns:sodipodi="http://sodipodi.sourceforge.net/DTD/sodipodi-0.dtd"
   xmlns="http://www.w3.org/2000/svg"
   xmlns:svg="http://www.w3.org/2000/svg">
  <sodipodi:namedview
     id="namedview7"
     pagecolor="#ffffff"
     bordercolor="#666666"
     borderopacity="1.0"
     inkscape:pageshadow="2"
     inkscape:pageopacity="0.0"
     inkscape:pagecheckerboard="0"
     inkscape:document-units="mm"
     showgrid="false"
     fit-margin-top="0"
     fit-margin-left="0"
     fit-margin-right="0"
     fit-margin-bottom="0"
     width="180mm"
     inkscape:zoom="0.64052329"
     inkscape:cx="307.56103"
     inkscape:cy="498.03029"
     inkscape:window-width="1920"
     inkscape:window-height="1043"
     inkscape:window-x="0"
     inkscape:window-y="0"
     inkscape:window-maximized="1"
     inkscape:current-layer="layer2" />
  <defs
     id="defs2" />
  <g
     inkscape:groupmode="layer"
     id="layer2"
     inkscape:label="Layer 2"
     style="display:inline">
    <g
       id="g1053">
      <path
         id="path875"
         style="stroke-width:3.77953;fill:#ef2929"
         d="m 373.47852,24.310547 c -9.01724,0.04895 -19.66857,1.890382 -33.19532,6.880859 L 87.255859,177.79297 c -19.316106,13.31289 -30.321798,31.73161 -1.695312,48.48437 L 348.74609,376.68555 c 16.07473,7.55909 37.61569,5.903 52.01758,-0.39453 L 669.46875,222.8418 c 11.8461,-7.80611 17.77098,-30.12195 -0.78711,-41.09961 L 410.66797,32.720703 C 398.99395,29.126178 388.50724,24.22896 373.47852,24.310547 Z m -3.41016,98.558593 c 30.89671,0.0333 65.97116,16.09405 59.91602,39.83594 l -5.1836,20.33008 c -4.11243,16.12449 5.82269,17.34165 12.07422,22.35742 l -52.22852,29.50781 c -27.45243,-8.05398 -22.20329,-32.02515 -19.92382,-37.79492 12.65515,-32.03256 -8.56571,-43.01088 -36.14844,-33.20508 -25.49609,9.06399 -38.2308,26.6216 -52.60352,45.4082 l -37.69726,-21.22851 c 19.71776,-18.8844 60.16651,-55.76434 117.16211,-63.9043 4.63349,-0.88942 9.57698,-1.31208 14.63281,-1.30664 z m 84.89844,91.16992 44.19726,24.98828 -54.15429,31.29102 -43.13282,-25.51563 z"
         transform="scale(0.26458333)" />
      <path
         id="path6549"
         style="stroke-width:3.77953;fill:#73d216"
         d="m 681.02344,229.25586 c -1.00202,-0.0266 -1.99759,0.17804 -2.96875,0.64648 L 398.59961,389.86328 c -14.32055,8.48153 -16.92699,19.67742 -16.99805,31.16016 l -0.28906,297.11133 c -0.12952,9.84737 16.9082,14.39199 31.49219,7.58593 L 653.50586,586.89453 c 18.55706,-10.53914 43.72278,-40.36895 43.72656,-74.08789 l -0.22851,-256.2168 c 0.76202,-11.65717 -7.82121,-27.11751 -15.98047,-27.33398 z m -98.58008,133.78125 c 32.04583,-0.0153 32.78615,43.30487 1.86719,92.13867 -10.18167,16.0811 -27.46248,35.10441 -22.78516,53.36524 l -48.33984,27.91406 c 0.689,-11.10176 -0.41535,-21.76791 6.29883,-35.03711 9.14101,-18.06539 24.05365,-37.08273 34.97656,-58.65235 11.23362,-22.18321 2.93743,-34.17971 -14.23633,-27.73437 -18.1931,6.82791 -35.89151,30.36899 -54.17773,50.24609 l 0.55859,-45.06054 c 19.63676,-19.53974 39.50263,-33.24772 57.61719,-43.89844 15.66689,-9.21159 28.41075,-13.27656 38.2207,-13.28125 z m -21.68164,166.13281 0.44922,50.88086 -48.19532,27.53711 -0.24609,-51.61328 z"
         transform="scale(0.26458333)" />
      <path
         id="path7443"
         style="stroke-width:3.77953;fill:#3465a4"
         d="M 67.695312,229.68555 C 59.881304,229.51577 52.210434,242.29975 52.6875,255.88672 L 52.28125,513.1582 c 0.180178,24.70454 14.268891,57.29627 50.32031,77.33203 l 231.83203,134.26954 c 12.31163,7.5953 32.15838,5.97905 32.19727,-6.32422 l 0.58203,-301.98047 c -0.54003,-9.5506 -3.61098,-18.03395 -13.36719,-23.69727 L 70.566406,230.35742 c -0.949135,-0.43406 -1.911478,-0.65102 -2.871094,-0.67187 z m 78.142578,119.45312 c 36.03281,5.91349 77.41516,28.51555 101.95899,59.31641 25.36861,31.83594 25.6469,73.81778 1.13085,85.21094 -24.82421,11.53636 -30.70838,13.83588 -27.68359,29.47851 l -47.79687,-27.125 C 174.20358,483.1889 169.1314,466.37445 193.51953,460.04688 226.5564,451.47536 222.96331,429.36456 207.45898,413 185.61164,389.94046 164.51094,394.11329 146.78125,393.41797 Z m 26.99805,166.81836 48.375,28.0293 0.4414,50.60351 -48.70117,-27.96484 z"
         transform="scale(0.26458333)" />
    </g>
  </g>
</svg>
